solid
facet normal -1.0 -0.0 -0.0
 outer loop
  vertex -5.0 1.766260027885437 7.738490104675293
  vertex -5.0 1.766260027885437 -7.738490104675293
  vertex -5.0 0.0 7.9375
 endloop
endfacet
facet normal -1.0 0.0 0.0
 outer loop
  vertex -5.0 0.0 7.9375
  vertex -5.0 1.766260027885437 -7.738490104675293
  vertex -5.0 0.0 -7.9375
 endloop
endfacet
facet normal -1.0 0.0 -0.0
 outer loop
  vertex -5.0 0.0 7.9375
  vertex -5.0 0.0 -7.9375
  vertex -5.0 -1.766260027885437 7.738490104675293
 endloop
endfacet
facet normal -1.0 0.0 0.0
 outer loop
  vertex -5.0 -1.766260027885437 7.738490104675293
  vertex -5.0 0.0 -7.9375
  vertex -5.0 -1.766260027885437 -7.738490104675293
 endloop
endfacet
facet normal -1.0 0.0 -0.0
 outer loop
  vertex -5.0 -1.766260027885437 7.738490104675293
  vertex -5.0 -1.766260027885437 -7.738490104675293
  vertex -5.0 -3.4439520835876465 7.151440143585205
 endloop
endfacet
facet normal -1.0 0.0 0.0
 outer loop
  vertex -5.0 -3.4439520835876465 7.151440143585205
  vertex -5.0 -1.766260027885437 -7.738490104675293
  vertex -5.0 -3.4439520835876465 -7.151440143585205
 endloop
endfacet
facet normal -1.0 0.0 -0.0
 outer loop
  vertex -5.0 -3.4439520835876465 7.151440143585205
  vertex -5.0 -3.4439520835876465 -7.151440143585205
  vertex -5.0 -4.948949813842773 6.2057881355285645
 endloop
endfacet
facet normal -1.0 0.0 0.0
 outer loop
  vertex -5.0 -4.948949813842773 6.2057881355285645
  vertex -5.0 -3.4439520835876465 -7.151440143585205
  vertex -5.0 -4.948949813842773 -6.2057881355285645
 endloop
endfacet
facet normal -1.0 0.0 -0.0
 outer loop
  vertex -5.0 -4.948949813842773 6.2057881355285645
  vertex -5.0 -4.948949813842773 -6.2057881355285645
  vertex -5.0 -6.2057881355285645 4.948949813842773
 endloop
endfacet
facet normal -1.0 0.0 0.0
 outer loop
  vertex -5.0 -6.2057881355285645 4.948949813842773
  vertex -5.0 -4.948949813842773 -6.2057881355285645
  vertex -5.0 -6.2057881355285645 -4.948949813842773
 endloop
endfacet
facet normal -1.0 0.0 -0.0
 outer loop
  vertex -5.0 -6.2057881355285645 4.948949813842773
  vertex -5.0 -6.2057881355285645 -4.948949813842773
  vertex -5.0 -7.151440143585205 3.4439520835876465
 endloop
endfacet
facet normal -1.0 0.0 0.0
 outer loop
  vertex -5.0 -7.151440143585205 3.4439520835876465
  vertex -5.0 -6.2057881355285645 -4.948949813842773
  vertex -5.0 -7.151440143585205 -3.4439520835876465
 endloop
endfacet
facet normal -1.0 0.0 -0.0
 outer loop
  vertex -5.0 -7.151440143585205 3.4439520835876465
  vertex -5.0 -7.151440143585205 -3.4439520835876465
  vertex -5.0 -7.738490104675293 1.766260027885437
 endloop
endfacet
facet normal -1.0 0.0 0.0
 outer loop
  vertex -5.0 -7.738490104675293 1.766260027885437
  vertex -5.0 -7.151440143585205 -3.4439520835876465
  vertex -5.0 -7.738490104675293 -1.766260027885437
 endloop
endfacet
facet normal -1.0 0.0 -0.0
 outer loop
  vertex -5.0 -7.738490104675293 1.766260027885437
  vertex -5.0 -7.738490104675293 -1.766260027885437
  vertex -5.0 -7.9375 0.0
 endloop
endfacet
facet normal -1.0 0.0 0.0
 outer loop
  vertex -5.0 1.766260027885437 -7.738490104675293
  vertex -5.0 1.766260027885437 7.738490104675293
  vertex -5.0 3.4439520835876465 -7.151440143585205
 endloop
endfacet
facet normal -1.0 0.0 0.0
 outer loop
  vertex -5.0 3.4439520835876465 -7.151440143585205
  vertex -5.0 1.766260027885437 7.738490104675293
  vertex -5.0 3.4439520835876465 7.151440143585205
 endloop
endfacet
facet normal -1.0 0.0 0.0
 outer loop
  vertex -5.0 3.4439520835876465 -7.151440143585205
  vertex -5.0 3.4439520835876465 7.151440143585205
  vertex -5.0 4.948949813842773 -6.2057881355285645
 endloop
endfacet
facet normal -1.0 0.0 0.0
 outer loop
  vertex -5.0 4.948949813842773 -6.2057881355285645
  vertex -5.0 3.4439520835876465 7.151440143585205
  vertex -5.0 4.948949813842773 6.2057881355285645
 endloop
endfacet
facet normal -1.0 0.0 0.0
 outer loop
  vertex -5.0 4.948949813842773 -6.2057881355285645
  vertex -5.0 4.948949813842773 6.2057881355285645
  vertex -5.0 6.2057881355285645 -4.948949813842773
 endloop
endfacet
facet normal -1.0 0.0 0.0
 outer loop
  vertex -5.0 6.2057881355285645 -4.948949813842773
  vertex -5.0 4.948949813842773 6.2057881355285645
  vertex -5.0 6.2057881355285645 4.948949813842773
 endloop
endfacet
facet normal -1.0 0.0 0.0
 outer loop
  vertex -5.0 6.2057881355285645 -4.948949813842773
  vertex -5.0 6.2057881355285645 4.948949813842773
  vertex -5.0 7.151440143585205 -3.4439520835876465
 endloop
endfacet
facet normal -1.0 0.0 0.0
 outer loop
  vertex -5.0 7.151440143585205 -3.4439520835876465
  vertex -5.0 6.2057881355285645 4.948949813842773
  vertex -5.0 7.151440143585205 3.4439520835876465
 endloop
endfacet
facet normal -1.0 0.0 0.0
 outer loop
  vertex -5.0 7.151440143585205 -3.4439520835876465
  vertex -5.0 7.151440143585205 3.4439520835876465
  vertex -5.0 7.738490104675293 -1.766260027885437
 endloop
endfacet
facet normal -1.0 0.0 0.0
 outer loop
  vertex -5.0 7.738490104675293 -1.766260027885437
  vertex -5.0 7.151440143585205 3.4439520835876465
  vertex -5.0 7.738490104675293 1.766260027885437
 endloop
endfacet
facet normal -1.0 0.0 0.0
 outer loop
  vertex -5.0 7.738490104675293 -1.766260027885437
  vertex -5.0 7.738490104675293 1.766260027885437
  vertex -5.0 7.9375 0.0
 endloop
endfacet
facet normal 0.0 -0.11196457907813548 0.9937121982907606
 outer loop
  vertex -5.0 -1.766260027885437 7.738490104675293
  vertex 96.52000427246094 -1.766260027885437 7.738490104675293
  vertex -5.0 0.0 7.9375
 endloop
endfacet
facet normal 0.0 -0.11196457907813548 0.9937121982907606
 outer loop
  vertex -5.0 0.0 7.9375
  vertex 96.52000427246094 -1.766260027885437 7.738490104675293
  vertex 96.52000427246094 0.0 7.9375
 endloop
endfacet
facet normal -0.0 0.11196457907813548 0.9937121982907606
 outer loop
  vertex -5.0 0.0 7.9375
  vertex 96.52000427246094 0.0 7.9375
  vertex -5.0 1.766260027885437 7.738490104675293
 endloop
endfacet
facet normal -0.0 0.11196457907813548 0.9937121982907606
 outer loop
  vertex -5.0 1.766260027885437 7.738490104675293
  vertex 96.52000427246094 0.0 7.9375
  vertex 96.52000427246094 1.766260027885437 7.738490104675293
 endloop
endfacet
facet normal -0.0 0.3302791224530475 0.9438833091392415
 outer loop
  vertex -5.0 1.766260027885437 7.738490104675293
  vertex 96.52000427246094 1.766260027885437 7.738490104675293
  vertex -5.0 3.4439520835876465 7.151440143585205
 endloop
endfacet
facet normal -0.0 0.3302791224530475 0.9438833091392415
 outer loop
  vertex -5.0 3.4439520835876465 7.151440143585205
  vertex 96.52000427246094 1.766260027885437 7.738490104675293
  vertex 96.52000427246094 3.4439520835876465 7.151440143585205
 endloop
endfacet
facet normal -0.0 0.5320317772055481 0.8467243872970154
 outer loop
  vertex -5.0 3.4439520835876465 7.151440143585205
  vertex 96.52000427246094 3.4439520835876465 7.151440143585205
  vertex -5.0 4.948949813842773 6.2057881355285645
 endloop
endfacet
facet normal -0.0 0.5320317772055481 0.8467243872970154
 outer loop
  vertex -5.0 4.948949813842773 6.2057881355285645
  vertex 96.52000427246094 3.4439520835876465 7.151440143585205
  vertex 96.52000427246094 4.948949813842773 6.2057881355285645
 endloop
endfacet
facet normal -0.0 0.7071067811865476 0.7071067811865476
 outer loop
  vertex -5.0 4.948949813842773 6.2057881355285645
  vertex 96.52000427246094 4.948949813842773 6.2057881355285645
  vertex -5.0 6.2057881355285645 4.948949813842773
 endloop
endfacet
facet normal -0.0 0.7071067811865476 0.7071067811865476
 outer loop
  vertex -5.0 6.2057881355285645 4.948949813842773
  vertex 96.52000427246094 4.948949813842773 6.2057881355285645
  vertex 96.52000427246094 6.2057881355285645 4.948949813842773
 endloop
endfacet
facet normal -0.0 0.8467243872970154 0.5320317772055481
 outer loop
  vertex -5.0 6.2057881355285645 4.948949813842773
  vertex 96.52000427246094 6.2057881355285645 4.948949813842773
  vertex -5.0 7.151440143585205 3.4439520835876465
 endloop
endfacet
facet normal -0.0 0.8467243872970154 0.5320317772055481
 outer loop
  vertex -5.0 7.151440143585205 3.4439520835876465
  vertex 96.52000427246094 6.2057881355285645 4.948949813842773
  vertex 96.52000427246094 7.151440143585205 3.4439520835876465
 endloop
endfacet
facet normal -0.0 0.9438833091392415 0.3302791224530475
 outer loop
  vertex -5.0 7.151440143585205 3.4439520835876465
  vertex 96.52000427246094 7.151440143585205 3.4439520835876465
  vertex -5.0 7.738490104675293 1.766260027885437
 endloop
endfacet
facet normal -0.0 0.9438833091392415 0.3302791224530475
 outer loop
  vertex -5.0 7.738490104675293 1.766260027885437
  vertex 96.52000427246094 7.151440143585205 3.4439520835876465
  vertex 96.52000427246094 7.738490104675293 1.766260027885437
 endloop
endfacet
facet normal -0.0 0.9937121982907606 0.11196457907813548
 outer loop
  vertex -5.0 7.738490104675293 1.766260027885437
  vertex 96.52000427246094 7.738490104675293 1.766260027885437
  vertex -5.0 7.9375 0.0
 endloop
endfacet
facet normal -0.0 0.9937121982907606 0.11196457907813548
 outer loop
  vertex -5.0 7.9375 0.0
  vertex 96.52000427246094 7.738490104675293 1.766260027885437
  vertex 96.52000427246094 7.9375 0.0
 endloop
endfacet
facet normal 0.0 0.9937121982907606 -0.11196457907813548
 outer loop
  vertex -5.0 7.9375 0.0
  vertex 96.52000427246094 7.9375 0.0
  vertex -5.0 7.738490104675293 -1.766260027885437
 endloop
endfacet
facet normal 0.0 0.9937121982907606 -0.11196457907813548
 outer loop
  vertex -5.0 7.738490104675293 -1.766260027885437
  vertex 96.52000427246094 7.9375 0.0
  vertex 96.52000427246094 7.738490104675293 -1.766260027885437
 endloop
endfacet
facet normal 0.0 0.9438833091392415 -0.3302791224530475
 outer loop
  vertex -5.0 7.738490104675293 -1.766260027885437
  vertex 96.52000427246094 7.738490104675293 -1.766260027885437
  vertex -5.0 7.151440143585205 -3.4439520835876465
 endloop
endfacet
facet normal 0.0 0.9438833091392415 -0.3302791224530475
 outer loop
  vertex -5.0 7.151440143585205 -3.4439520835876465
  vertex 96.52000427246094 7.738490104675293 -1.766260027885437
  vertex 96.52000427246094 7.151440143585205 -3.4439520835876465
 endloop
endfacet
facet normal 0.0 0.8467243872970154 -0.5320317772055481
 outer loop
  vertex -5.0 7.151440143585205 -3.4439520835876465
  vertex 96.52000427246094 7.151440143585205 -3.4439520835876465
  vertex -5.0 6.2057881355285645 -4.948949813842773
 endloop
endfacet
facet normal 0.0 0.8467243872970154 -0.5320317772055481
 outer loop
  vertex -5.0 6.2057881355285645 -4.948949813842773
  vertex 96.52000427246094 7.151440143585205 -3.4439520835876465
  vertex 96.52000427246094 6.2057881355285645 -4.948949813842773
 endloop
endfacet
facet normal 0.0 0.7071067811865476 -0.7071067811865476
 outer loop
  vertex -5.0 6.2057881355285645 -4.948949813842773
  vertex 96.52000427246094 6.2057881355285645 -4.948949813842773
  vertex -5.0 4.948949813842773 -6.2057881355285645
 endloop
endfacet
facet normal 0.0 0.7071067811865476 -0.7071067811865476
 outer loop
  vertex -5.0 4.948949813842773 -6.2057881355285645
  vertex 96.52000427246094 6.2057881355285645 -4.948949813842773
  vertex 96.52000427246094 4.948949813842773 -6.2057881355285645
 endloop
endfacet
facet normal 0.0 0.5320317772055481 -0.8467243872970154
 outer loop
  vertex -5.0 4.948949813842773 -6.2057881355285645
  vertex 96.52000427246094 4.948949813842773 -6.2057881355285645
  vertex -5.0 3.4439520835876465 -7.151440143585205
 endloop
endfacet
facet normal 0.0 0.5320317772055481 -0.8467243872970154
 outer loop
  vertex -5.0 3.4439520835876465 -7.151440143585205
  vertex 96.52000427246094 4.948949813842773 -6.2057881355285645
  vertex 96.52000427246094 3.4439520835876465 -7.151440143585205
 endloop
endfacet
facet normal 0.0 0.3302791224530475 -0.9438833091392415
 outer loop
  vertex -5.0 3.4439520835876465 -7.151440143585205
  vertex 96.52000427246094 3.4439520835876465 -7.151440143585205
  vertex -5.0 1.766260027885437 -7.738490104675293
 endloop
endfacet
facet normal 0.0 0.3302791224530475 -0.9438833091392415
 outer loop
  vertex -5.0 1.766260027885437 -7.738490104675293
  vertex 96.52000427246094 3.4439520835876465 -7.151440143585205
  vertex 96.52000427246094 1.766260027885437 -7.738490104675293
 endloop
endfacet
facet normal 0.0 0.11196457907813548 -0.9937121982907606
 outer loop
  vertex -5.0 1.766260027885437 -7.738490104675293
  vertex 96.52000427246094 1.766260027885437 -7.738490104675293
  vertex -5.0 0.0 -7.9375
 endloop
endfacet
facet normal 0.0 0.11196457907813548 -0.9937121982907606
 outer loop
  vertex -5.0 0.0 -7.9375
  vertex 96.52000427246094 1.766260027885437 -7.738490104675293
  vertex 96.52000427246094 0.0 -7.9375
 endloop
endfacet
facet normal 0.0 -0.11196457907813548 -0.9937121982907606
 outer loop
  vertex -5.0 0.0 -7.9375
  vertex 96.52000427246094 0.0 -7.9375
  vertex -5.0 -1.766260027885437 -7.738490104675293
 endloop
endfacet
facet normal 0.0 -0.11196457907813548 -0.9937121982907606
 outer loop
  vertex -5.0 -1.766260027885437 -7.738490104675293
  vertex 96.52000427246094 0.0 -7.9375
  vertex 96.52000427246094 -1.766260027885437 -7.738490104675293
 endloop
endfacet
facet normal 0.0 -0.3302791224530475 -0.9438833091392415
 outer loop
  vertex -5.0 -1.766260027885437 -7.738490104675293
  vertex 96.52000427246094 -1.766260027885437 -7.738490104675293
  vertex -5.0 -3.4439520835876465 -7.151440143585205
 endloop
endfacet
facet normal 0.0 -0.3302791224530475 -0.9438833091392415
 outer loop
  vertex -5.0 -3.4439520835876465 -7.151440143585205
  vertex 96.52000427246094 -1.766260027885437 -7.738490104675293
  vertex 96.52000427246094 -3.4439520835876465 -7.151440143585205
 endloop
endfacet
facet normal 0.0 -0.5320317772055481 -0.8467243872970154
 outer loop
  vertex -5.0 -3.4439520835876465 -7.151440143585205
  vertex 96.52000427246094 -3.4439520835876465 -7.151440143585205
  vertex -5.0 -4.948949813842773 -6.2057881355285645
 endloop
endfacet
facet normal 0.0 -0.5320317772055481 -0.8467243872970154
 outer loop
  vertex -5.0 -4.948949813842773 -6.2057881355285645
  vertex 96.52000427246094 -3.4439520835876465 -7.151440143585205
  vertex 96.52000427246094 -4.948949813842773 -6.2057881355285645
 endloop
endfacet
facet normal 0.0 -0.7071067811865476 -0.7071067811865476
 outer loop
  vertex -5.0 -4.948949813842773 -6.2057881355285645
  vertex 96.52000427246094 -4.948949813842773 -6.2057881355285645
  vertex -5.0 -6.2057881355285645 -4.948949813842773
 endloop
endfacet
facet normal 0.0 -0.7071067811865476 -0.7071067811865476
 outer loop
  vertex -5.0 -6.2057881355285645 -4.948949813842773
  vertex 96.52000427246094 -4.948949813842773 -6.2057881355285645
  vertex 96.52000427246094 -6.2057881355285645 -4.948949813842773
 endloop
endfacet
facet normal 0.0 -0.8467243872970154 -0.5320317772055481
 outer loop
  vertex -5.0 -6.2057881355285645 -4.948949813842773
  vertex 96.52000427246094 -6.2057881355285645 -4.948949813842773
  vertex -5.0 -7.151440143585205 -3.4439520835876465
 endloop
endfacet
facet normal 0.0 -0.8467243872970154 -0.5320317772055481
 outer loop
  vertex -5.0 -7.151440143585205 -3.4439520835876465
  vertex 96.52000427246094 -6.2057881355285645 -4.948949813842773
  vertex 96.52000427246094 -7.151440143585205 -3.4439520835876465
 endloop
endfacet
facet normal 0.0 -0.9438833091392415 -0.3302791224530475
 outer loop
  vertex -5.0 -7.151440143585205 -3.4439520835876465
  vertex 96.52000427246094 -7.151440143585205 -3.4439520835876465
  vertex -5.0 -7.738490104675293 -1.766260027885437
 endloop
endfacet
facet normal 0.0 -0.9438833091392415 -0.3302791224530475
 outer loop
  vertex -5.0 -7.738490104675293 -1.766260027885437
  vertex 96.52000427246094 -7.151440143585205 -3.4439520835876465
  vertex 96.52000427246094 -7.738490104675293 -1.766260027885437
 endloop
endfacet
facet normal 0.0 -0.9937121982907606 -0.11196457907813548
 outer loop
  vertex -5.0 -7.738490104675293 -1.766260027885437
  vertex 96.52000427246094 -7.738490104675293 -1.766260027885437
  vertex -5.0 -7.9375 0.0
 endloop
endfacet
facet normal 0.0 -0.9937121982907606 -0.11196457907813548
 outer loop
  vertex -5.0 -7.9375 0.0
  vertex 96.52000427246094 -7.738490104675293 -1.766260027885437
  vertex 96.52000427246094 -7.9375 0.0
 endloop
endfacet
facet normal 0.0 -0.9937121982907606 0.11196457907813548
 outer loop
  vertex -5.0 -7.9375 0.0
  vertex 96.52000427246094 -7.9375 0.0
  vertex -5.0 -7.738490104675293 1.766260027885437
 endloop
endfacet
facet normal 0.0 -0.9937121982907606 0.11196457907813548
 outer loop
  vertex -5.0 -7.738490104675293 1.766260027885437
  vertex 96.52000427246094 -7.9375 0.0
  vertex 96.52000427246094 -7.738490104675293 1.766260027885437
 endloop
endfacet
facet normal 0.0 -0.9438833091392415 0.3302791224530475
 outer loop
  vertex -5.0 -7.738490104675293 1.766260027885437
  vertex 96.52000427246094 -7.738490104675293 1.766260027885437
  vertex -5.0 -7.151440143585205 3.4439520835876465
 endloop
endfacet
facet normal 0.0 -0.9438833091392415 0.3302791224530475
 outer loop
  vertex -5.0 -7.151440143585205 3.4439520835876465
  vertex 96.52000427246094 -7.738490104675293 1.766260027885437
  vertex 96.52000427246094 -7.151440143585205 3.4439520835876465
 endloop
endfacet
facet normal 0.0 -0.8467243872970154 0.5320317772055481
 outer loop
  vertex -5.0 -7.151440143585205 3.4439520835876465
  vertex 96.52000427246094 -7.151440143585205 3.4439520835876465
  vertex -5.0 -6.2057881355285645 4.948949813842773
 endloop
endfacet
facet normal 0.0 -0.8467243872970154 0.5320317772055481
 outer loop
  vertex -5.0 -6.2057881355285645 4.948949813842773
  vertex 96.52000427246094 -7.151440143585205 3.4439520835876465
  vertex 96.52000427246094 -6.2057881355285645 4.948949813842773
 endloop
endfacet
facet normal 0.0 -0.7071067811865476 0.7071067811865476
 outer loop
  vertex -5.0 -6.2057881355285645 4.948949813842773
  vertex 96.52000427246094 -6.2057881355285645 4.948949813842773
  vertex -5.0 -4.948949813842773 6.2057881355285645
 endloop
endfacet
facet normal 0.0 -0.7071067811865476 0.7071067811865476
 outer loop
  vertex -5.0 -4.948949813842773 6.2057881355285645
  vertex 96.52000427246094 -6.2057881355285645 4.948949813842773
  vertex 96.52000427246094 -4.948949813842773 6.2057881355285645
 endloop
endfacet
facet normal 0.0 -0.5320317772055481 0.8467243872970154
 outer loop
  vertex -5.0 -4.948949813842773 6.2057881355285645
  vertex 96.52000427246094 -4.948949813842773 6.2057881355285645
  vertex -5.0 -3.4439520835876465 7.151440143585205
 endloop
endfacet
facet normal 0.0 -0.5320317772055481 0.8467243872970154
 outer loop
  vertex -5.0 -3.4439520835876465 7.151440143585205
  vertex 96.52000427246094 -4.948949813842773 6.2057881355285645
  vertex 96.52000427246094 -3.4439520835876465 7.151440143585205
 endloop
endfacet
facet normal 0.0 -0.3302791224530475 0.9438833091392415
 outer loop
  vertex -5.0 -3.4439520835876465 7.151440143585205
  vertex 96.52000427246094 -3.4439520835876465 7.151440143585205
  vertex -5.0 -1.766260027885437 7.738490104675293
 endloop
endfacet
facet normal 0.0 -0.3302791224530475 0.9438833091392415
 outer loop
  vertex -5.0 -1.766260027885437 7.738490104675293
  vertex 96.52000427246094 -3.4439520835876465 7.151440143585205
  vertex 96.52000427246094 -1.766260027885437 7.738490104675293
 endloop
endfacet
facet normal 1.0 0.0 0.0
 outer loop
  vertex 96.52000427246094 7.9375 0.0
  vertex 96.52000427246094 7.738490104675293 1.766260027885437
  vertex 96.52000427246094 7.738490104675293 -1.766260027885437
 endloop
endfacet
facet normal 1.0 0.0 -0.0
 outer loop
  vertex 96.52000427246094 7.738490104675293 -1.766260027885437
  vertex 96.52000427246094 7.738490104675293 1.766260027885437
  vertex 96.52000427246094 7.151440143585205 -3.4439520835876465
 endloop
endfacet
facet normal 1.0 0.0 0.0
 outer loop
  vertex 96.52000427246094 7.151440143585205 -3.4439520835876465
  vertex 96.52000427246094 7.738490104675293 1.766260027885437
  vertex 96.52000427246094 7.151440143585205 3.4439520835876465
 endloop
endfacet
facet normal 1.0 0.0 -0.0
 outer loop
  vertex 96.52000427246094 7.151440143585205 -3.4439520835876465
  vertex 96.52000427246094 7.151440143585205 3.4439520835876465
  vertex 96.52000427246094 6.2057881355285645 -4.948949813842773
 endloop
endfacet
facet normal 1.0 0.0 0.0
 outer loop
  vertex 96.52000427246094 6.2057881355285645 -4.948949813842773
  vertex 96.52000427246094 7.151440143585205 3.4439520835876465
  vertex 96.52000427246094 6.2057881355285645 4.948949813842773
 endloop
endfacet
facet normal 1.0 0.0 -0.0
 outer loop
  vertex 96.52000427246094 6.2057881355285645 -4.948949813842773
  vertex 96.52000427246094 6.2057881355285645 4.948949813842773
  vertex 96.52000427246094 4.948949813842773 -6.2057881355285645
 endloop
endfacet
facet normal 1.0 0.0 0.0
 outer loop
  vertex 96.52000427246094 4.948949813842773 -6.2057881355285645
  vertex 96.52000427246094 6.2057881355285645 4.948949813842773
  vertex 96.52000427246094 4.948949813842773 6.2057881355285645
 endloop
endfacet
facet normal 1.0 0.0 -0.0
 outer loop
  vertex 96.52000427246094 4.948949813842773 -6.2057881355285645
  vertex 96.52000427246094 4.948949813842773 6.2057881355285645
  vertex 96.52000427246094 3.4439520835876465 -7.151440143585205
 endloop
endfacet
facet normal 1.0 0.0 0.0
 outer loop
  vertex 96.52000427246094 3.4439520835876465 -7.151440143585205
  vertex 96.52000427246094 4.948949813842773 6.2057881355285645
  vertex 96.52000427246094 3.4439520835876465 7.151440143585205
 endloop
endfacet
facet normal 1.0 0.0 -0.0
 outer loop
  vertex 96.52000427246094 3.4439520835876465 -7.151440143585205
  vertex 96.52000427246094 3.4439520835876465 7.151440143585205
  vertex 96.52000427246094 1.766260027885437 -7.738490104675293
 endloop
endfacet
facet normal 1.0 0.0 0.0
 outer loop
  vertex 96.52000427246094 1.766260027885437 -7.738490104675293
  vertex 96.52000427246094 3.4439520835876465 7.151440143585205
  vertex 96.52000427246094 1.766260027885437 7.738490104675293
 endloop
endfacet
facet normal 1.0 0.0 -0.0
 outer loop
  vertex 96.52000427246094 1.766260027885437 -7.738490104675293
  vertex 96.52000427246094 1.766260027885437 7.738490104675293
  vertex 96.52000427246094 0.0 -7.9375
 endloop
endfacet
facet normal 1.0 0.0 0.0
 outer loop
  vertex 96.52000427246094 0.0 -7.9375
  vertex 96.52000427246094 1.766260027885437 7.738490104675293
  vertex 96.52000427246094 0.0 7.9375
 endloop
endfacet
facet normal 1.0 0.0 -0.0
 outer loop
  vertex 96.52000427246094 0.0 -7.9375
  vertex 96.52000427246094 0.0 7.9375
  vertex 96.52000427246094 -1.766260027885437 -7.738490104675293
 endloop
endfacet
facet normal 1.0 0.0 0.0
 outer loop
  vertex 96.52000427246094 -1.766260027885437 -7.738490104675293
  vertex 96.52000427246094 0.0 7.9375
  vertex 96.52000427246094 -1.766260027885437 7.738490104675293
 endloop
endfacet
facet normal 1.0 0.0 -0.0
 outer loop
  vertex 96.52000427246094 -1.766260027885437 -7.738490104675293
  vertex 96.52000427246094 -1.766260027885437 7.738490104675293
  vertex 96.52000427246094 -3.4439520835876465 -7.151440143585205
 endloop
endfacet
facet normal 1.0 0.0 0.0
 outer loop
  vertex 96.52000427246094 -3.4439520835876465 -7.151440143585205
  vertex 96.52000427246094 -1.766260027885437 7.738490104675293
  vertex 96.52000427246094 -3.4439520835876465 7.151440143585205
 endloop
endfacet
facet normal 1.0 0.0 -0.0
 outer loop
  vertex 96.52000427246094 -3.4439520835876465 -7.151440143585205
  vertex 96.52000427246094 -3.4439520835876465 7.151440143585205
  vertex 96.52000427246094 -4.948949813842773 -6.2057881355285645
 endloop
endfacet
facet normal 1.0 0.0 0.0
 outer loop
  vertex 96.52000427246094 -4.948949813842773 -6.2057881355285645
  vertex 96.52000427246094 -3.4439520835876465 7.151440143585205
  vertex 96.52000427246094 -4.948949813842773 6.2057881355285645
 endloop
endfacet
facet normal 1.0 0.0 -0.0
 outer loop
  vertex 96.52000427246094 -4.948949813842773 -6.2057881355285645
  vertex 96.52000427246094 -4.948949813842773 6.2057881355285645
  vertex 96.52000427246094 -6.2057881355285645 -4.948949813842773
 endloop
endfacet
facet normal 1.0 0.0 0.0
 outer loop
  vertex 96.52000427246094 -6.2057881355285645 -4.948949813842773
  vertex 96.52000427246094 -4.948949813842773 6.2057881355285645
  vertex 96.52000427246094 -6.2057881355285645 4.948949813842773
 endloop
endfacet
facet normal 1.0 0.0 -0.0
 outer loop
  vertex 96.52000427246094 -6.2057881355285645 -4.948949813842773
  vertex 96.52000427246094 -6.2057881355285645 4.948949813842773
  vertex 96.52000427246094 -7.151440143585205 -3.4439520835876465
 endloop
endfacet
facet normal 1.0 0.0 0.0
 outer loop
  vertex 96.52000427246094 -7.151440143585205 -3.4439520835876465
  vertex 96.52000427246094 -6.2057881355285645 4.948949813842773
  vertex 96.52000427246094 -7.151440143585205 3.4439520835876465
 endloop
endfacet
facet normal 1.0 0.0 -0.0
 outer loop
  vertex 96.52000427246094 -7.151440143585205 -3.4439520835876465
  vertex 96.52000427246094 -7.151440143585205 3.4439520835876465
  vertex 96.52000427246094 -7.738490104675293 -1.766260027885437
 endloop
endfacet
facet normal 1.0 0.0 0.0
 outer loop
  vertex 96.52000427246094 -7.738490104675293 -1.766260027885437
  vertex 96.52000427246094 -7.151440143585205 3.4439520835876465
  vertex 96.52000427246094 -7.738490104675293 1.766260027885437
 endloop
endfacet
facet normal 1.0 0.0 -0.0
 outer loop
  vertex 96.52000427246094 -7.738490104675293 -1.766260027885437
  vertex 96.52000427246094 -7.738490104675293 1.766260027885437
  vertex 96.52000427246094 -7.9375 0.0
 endloop
endfacet
endsolid
